<svg id="visual" viewBox="0 0 960 540" width="960" height="540" xmlns="http://www.w3.org/2000/svg" xmlns:xlink="http://www.w3.org/1999/xlink" version="1.1"><rect x="0" y="0" width="960" height="540" fill="#FCAF3C"></rect><path d="M0 346L14.5 357.7C29 369.3 58 392.7 87.2 401.3C116.3 410 145.7 404 174.8 367.5C204 331 233 264 262 276.7C291 289.3 320 381.7 349 434C378 486.3 407 498.7 436.2 460C465.3 421.3 494.7 331.7 523.8 318.3C553 305 582 368 611 411C640 454 669 477 698 436.7C727 396.3 756 292.7 785.2 289.2C814.3 285.7 843.7 382.3 872.8 388.5C902 394.7 931 310.3 945.5 268.2L960 226L960 541L945.5 541C931 541 902 541 872.8 541C843.7 541 814.3 541 785.2 541C756 541 727 541 698 541C669 541 640 541 611 541C582 541 553 541 523.8 541C494.7 541 465.3 541 436.2 541C407 541 378 541 349 541C320 541 291 541 262 541C233 541 204 541 174.8 541C145.7 541 116.3 541 87.2 541C58 541 29 541 14.5 541L0 541Z" fill="#0066FF" stroke-linecap="round" stroke-linejoin="miter"></path></svg>